<?xml version="1.0" encoding="UTF-8"?>
<svg id="Layer_1" data-name="Layer 1" xmlns="http://www.w3.org/2000/svg" viewBox="0 0 1281.07 1998.67">
  <defs>
    <style>
      .cls-1 {
        fill: #fff;
      }

      .cls-1, .cls-2 {
        stroke: #fff;
        stroke-linecap: round;
        stroke-miterlimit: 10;
        stroke-width: 28px;
      }

      .cls-3 {
        fill: #e53535;
      }

      .cls-2 {
        fill: none;
      }
    </style>
  </defs>
  <g id="Hand_Version_1" data-name="Hand Version 1">
    <circle class="cls-3" cx="734.92" cy="1395.06" r="524.94"/>
    <circle class="cls-3" cx="314.96" cy="627.05" r="104.99"/>
    <circle class="cls-3" cx="524.94" cy="207.1" r="104.99"/>
    <circle class="cls-3" cx="734.92" cy="104.99" r="104.99"/>
    <circle class="cls-3" cx="944.89" cy="207.1" r="104.99"/>
    <circle class="cls-3" cx="1154.87" cy="832.53" r="104.99"/>
    <rect class="cls-3" x="209.98" y="627.05" width="209.98" height="768.01"/>
    <rect class="cls-3" x="419.95" y="207.1" width="209.98" height="1187.96"/>
    <rect class="cls-3" x="629.93" y="102.11" width="209.98" height="1292.95"/>
    <rect class="cls-3" x="839.9" y="203.96" width="209.98" height="1191.1"/>
    <rect class="cls-3" x="1049.88" y="832.53" width="209.98" height="562.53"/>
    <g id="Re">
      <line class="cls-2" x1="525.24" y1="1280" x2="525.24" y2="1788.7"/>
      <line class="cls-2" x1="314.96" y1="1368.75" x2="734.92" y2="1368.75"/>
      <line class="cls-2" x1="314.64" y1="1457.49" x2="944.89" y2="1457.48"/>
      <line class="cls-2" x1="944.89" y1="1457.49" x2="944.89" y2="1788.7"/>
      <line class="cls-2" x1="997.39" y1="1788.7" x2="944.89" y2="1788.7"/>
    </g>
    <g id="Ma">
      <line class="cls-2" x1="314.96" y1="1158.77" x2="314.96" y2="1280"/>
      <line class="cls-2" x1="1154.87" y1="1158.77" x2="314.96" y2="1158.77"/>
      <line class="cls-2" x1="1154.87" y1="1280" x2="1154.87" y2="1158.77"/>
      <line class="cls-1" x1="734.92" y1="639.99" x2="734.92" y2="1280"/>
      <line class="cls-2" x1="314.96" y1="1280" x2="734.92" y2="1280"/>
      <line class="cls-2" x1="314.96" y1="841.93" x2="997.39" y2="841.93"/>
      <line class="cls-2" x1="314.96" y1="946.92" x2="1154.87" y2="946.92"/>
    </g>
    <g id="To">
      <line class="cls-2" x1="944.89" y1="312.08" x2="997.39" y2="312.09"/>
      <line class="cls-2" x1="314.96" y1="639.99" x2="997.39" y2="639.99"/>
      <line class="cls-2" x1="525.24" y1="639.99" x2="524.62" y2="312.09"/>
      <line class="cls-2" x1="944.89" y1="640" x2="944.89" y2="203.96"/>
    </g>
  </g>
</svg>